<svg width="320" height="420" viewBox="0 0 320 420" xmlns="http://www.w3.org/2000/svg">
  <defs>
    <linearGradient id="metalGradient" x1="0" y1="0" x2="0" y2="1">
      <stop offset="0%" stop-color="#c0c0c0"/>
      <stop offset="50%" stop-color="#e0e0e0"/>
      <stop offset="100%" stop-color="#909090"/>
    </linearGradient>
    <radialGradient id="eyeGlow" cx="0.5" cy="0.5" r="0.5" fx="0.5" fy="0.5">
      <stop offset="0%" stop-color="#66ccff" stop-opacity="0.9"/>
      <stop offset="100%" stop-color="#003366" stop-opacity="0"/>
    </radialGradient>
    <filter id="shadow" x="-20%" y="-20%" width="140%" height="140%">
      <feDropShadow dx="0" dy="5" stdDeviation="3" flood-color="#222" flood-opacity="0.4"/>
    </filter>
  </defs>
  
  <!-- Gövde -->
  <rect x="90" y="160" width="140" height="160" rx="30" ry="30" fill="url(#metalGradient)" filter="url(#shadow)"/>
  <rect x="110" y="180" width="100" height="120" rx="15" ry="15" fill="#b0b0b0"/>
  
  <!-- Gövde panel detayları -->
  <rect x="125" y="195" width="20" height="30" rx="5" ry="5" fill="#7f7f7f"/>
  <rect x="175" y="195" width="20" height="30" rx="5" ry="5" fill="#7f7f7f"/>
  <rect x="125" y="235" width="70" height="60" rx="10" ry="10" fill="#909090" />
  <line x1="125" y1="260" x2="195" y2="260" stroke="#6a6a6a" stroke-width="3"/>
  
  <!-- Kafa -->
  <rect x="115" y="70" width="90" height="90" rx="25" ry="25" fill="url(#metalGradient)" stroke="#707070" stroke-width="4" filter="url(#shadow)"/>
  <rect x="130" y="85" width="60" height="60" rx="15" ry="15" fill="#b0b0b0"/>
  
  <!-- Gözler -->
  <circle cx="160" cy="115" r="18" fill="#004080"/>
  <circle cx="190" cy="115" r="18" fill="#004080"/>
  <circle cx="160" cy="115" r="10" fill="url(#eyeGlow)"/>
  <circle cx="190" cy="115" r="10" fill="url(#eyeGlow)"/>
  <circle cx="160" cy="115" r="6" fill="#001a33"/>
  <circle cx="190" cy="115" r="6" fill="#001a33"/>
  
  <!-- Ağız -->
  <rect x="145" y="155" width="30" height="12" rx="6" ry="6" fill="#606060" />
  <line x1="145" y1="161" x2="175" y2="161" stroke="#303030" stroke-width="2"/>
  
  <!-- Anten -->
  <line x1="160" y1="70" x2="160" y2="40" stroke="#606060" stroke-width="5"/>
  <circle cx="160" cy="30" r="10" fill="#66ccff" stroke="#004080" stroke-width="3"/>
  
  <!-- Kollar -->
  <rect x="40" y="170" width="40" height="130" rx="25" ry="25" fill="url(#metalGradient)" stroke="#707070" stroke-width="3" filter="url(#shadow)"/>
  <rect x="240" y="170" width="40" height="130" rx="25" ry="25" fill="url(#metalGradient)" stroke="#707070" stroke-width="3" filter="url(#shadow)"/>
  <rect x="50" y="180" width="20" height="110" rx="15" ry="15" fill="#a0a0a0"/>
  <rect x="250" y="180" width="20" height="110" rx="15" ry="15" fill="#a0a0a0"/>
  
  <!-- Eller -->
  <circle cx="60" cy="310" r="30" fill="#909090" stroke="#707070" stroke-width="4"/>
  <circle cx="260" cy="310" r="30" fill="#909090" stroke="#707070" stroke-width="4"/>
  
  <!-- Bacaklar -->
  <rect x="115" y="320" width="40" height="90" rx="25" ry="25" fill="url(#metalGradient)" stroke="#707070" stroke-width="3" filter="url(#shadow)"/>
  <rect x="165" y="320" width="40" height="90" rx="25" ry="25" fill="url(#metalGradient)" stroke="#707070" stroke-width="3" filter="url(#shadow)"/>
  <rect x="125" y="330" width="20" height="70" rx="15" ry="15" fill="#a0a0a0"/>
  <rect x="175" y="330" width="20" height="70" rx="15" ry="15" fill="#a0a0a0"/>
  
  <!-- Ayaklar -->
  <ellipse cx="135" cy="405" rx="35" ry="15" fill="#606060"/>
  <ellipse cx="185" cy="405" rx="35" ry="15" fill="#606060"/>
</svg>
